<svg id="Layer_1" data-name="Layer 1" xmlns="http://www.w3.org/2000/svg" viewBox="0 0 901.189 681.934">
  <g id="Layer_8" data-name="Layer 8">
    <path d="M827.9,679.972a60.91,60.91,0,0,0,57.358-40.26c18.683-52.047,35.144-148.458-38.007-252.743-80.885-115.307-242.691-234.51-356.5-246.722-178.3-19.122-228.134,188.762-308.136,237.138C113.493,419.181,13.394,481.856.31,612.848a61.019,61.019,0,0,0,54.612,66.815q3.026.3,6.071.306Z" fill="#f3f5fd"></path>
  </g>
  <path d="M818.22,675.585c19.806-6.138,39.022-14.159,56.531-36.609,3.593-4.6,6.97-10.494,5-16-1.482-4.143-5.769-6.8-10.124-7.476a20.962,20.962,0,0,0-4.9-.134c-.008,0-.016,0-.019,0a41.248,41.248,0,0,0-7.413,1.454l-.692.2a122.077,122.077,0,0,0-32.668,14.754,4.811,4.811,0,0,1-6.7-6.55,29.135,29.135,0,0,1,3.58-4.7,46.344,46.344,0,0,1,6.514-5.649c3.114-2.271,6.436-4.3,9.687-6.373a268.393,268.393,0,0,0,34.24-25.875c7.64-6.806,15.112-14.359,18.743-23.928,1.669-4.4,2.428-9.473.438-13.737-3.284-7-12.587-8.963-20.194-7.51-13.33,2.553-23.978,12.325-33.421,22.064-7.831,8.093-16.606,17.054-27.857,17.551a9.853,9.853,0,0,1-5.547-1.112c-3.209-1.944-4.034-6.448-2.89-10.024s3.791-6.434,6.346-9.178c14.851-15.932,29.465-32.506,39.108-52.029s13.915-42.571,7.214-63.3c-1.964-6.06-4.917-11.956-9.522-16.358s-11.063-7.162-17.385-6.319c-8.613,1.134-15.1,8.4-19.464,15.908-15,25.753-14.083,57.308-18.308,86.808-1.182,8.259-2.9,16.729-7.82,23.527a5.553,5.553,0,0,1-1.726,1.61c-4.048,2.344-7.68-2.383-9.2-6.394-6-15.868-7.5-34.016-18.242-47.15-4.1-5-9.9-9.179-16.365-9.138-7.895.054-14.655,6.648-16.959,14.2s-.925,15.757,1.543,23.256c4.582,13.906,12.794,26.4,22.472,37.379,5.1,5.8,10.87,11.655,12.4,19.219a15.328,15.328,0,0,1-4.813,14.133,8.984,8.984,0,0,1-6.654,2.176c-2.592-.237-4.936-1.559-7.2-2.844-.949-.54-1.9-1.088-2.857-1.625q-5.66-3.222-11.322-6.453c-9.6-5.474-21.181-11.067-31.175-6.353-5.1,2.41-8.441,7.149-10.013,12.586a27.541,27.541,0,0,0,0,15.1c2.977,10.263,21.741,38.822,29.48,46.187C719.107,659.48,750.452,696.588,818.22,675.585Z" fill="#8ddbe0"></path>
  <g>
    <polygon points="625.931 0 625.931 470.104 625.375 470.104 595.396 440.125 565.408 470.104 563.341 470.104 533.362 440.125 503.374 470.104 503.235 470.104 472.237 439.106 441.247 470.104 441.201 470.104 410.202 439.106 379.204 470.104 379 470.104 348.001 439.106 317.012 470.104 316.956 470.104 285.967 439.106 255.423 469.65 255.423 0 625.931 0" fill="#dee8f5"></polygon>
    <g>
      <rect x="295.68" y="111.772" width="159.966" height="14.147" fill="#fff"></rect>
      <rect x="295.68" y="68.321" width="108.821" height="14.147" fill="#fff"></rect>
      <rect x="295.68" y="155.222" width="133.849" height="14.147" fill="#fff"></rect>
      <rect x="295.68" y="198.673" width="99.027" height="14.147" fill="#fff"></rect>
      <rect x="295.68" y="242.123" width="145" height="14.147" fill="#fff"></rect>
      <rect x="295.68" y="285.574" width="125.144" height="14.147" fill="#fff"></rect>
      <rect x="295.68" y="329.024" width="108.821" height="14.147" fill="#fff"></rect>
      <rect x="295.68" y="372.475" width="89.233" height="14.147" fill="#fff"></rect>
    </g>
    <g>
      <rect x="525.291" y="111.772" width="58.763" height="14.147" fill="#fff"></rect>
      <rect x="525.291" y="68.321" width="58.763" height="14.147" fill="#fff"></rect>
      <rect x="525.291" y="155.222" width="58.763" height="14.147" fill="#fff"></rect>
      <rect x="525.291" y="198.673" width="58.763" height="14.147" fill="#fff"></rect>
      <rect x="525.291" y="242.123" width="58.763" height="14.147" fill="#fff"></rect>
      <rect x="525.291" y="285.574" width="58.763" height="14.147" fill="#fff"></rect>
      <rect x="525.291" y="329.024" width="58.763" height="14.147" fill="#fff"></rect>
      <rect x="525.291" y="372.475" width="58.763" height="14.147" fill="#fff"></rect>
    </g>
    <g>
      <circle cx="625.931" cy="426.158" r="82.987" fill="#0cbc8b"></circle>
      <path d="M611.7,471.468a6.777,6.777,0,0,1-4.651-1.848l-31.523-29.744a6.778,6.778,0,0,1,9.3-9.86l26.5,25,55.339-60.98a6.778,6.778,0,0,1,10.038,9.11l-59.983,66.1a6.778,6.778,0,0,1-4.756,2.218C611.876,471.466,611.788,471.468,611.7,471.468Z" fill="#fff"></path>
    </g>
  </g>
  <g>
    <g>
      <path d="M196.405,669.152l-20.854-2.479c.939-7.893,2-17.374,2.072-18.928,0,.1,0,.181,0,.244h21C198.619,648.619,198.619,650.535,196.405,669.152Z" fill="#E98862"></path>
      <path d="M112.729,671.663l-21-.069s.07-21.684.07-23.605h21C112.8,649.916,112.729,671.663,112.729,671.663Z" fill="#E98862"></path>
      <path d="M167.158,662.521l36.994-.63c-1.538-38.963-1.8-83.528-2.213-123.855a233.853,233.853,0,0,0-2.26-29.872c-5.952-42.723-9.834-85.2-17.848-127.679l-.267.079-.782-5.33-76.077-4.695-3.96,49.705S90.836,592.191,86.317,661.329l36.868,3.115c6.643-67.786,16.924-166.556,23.246-237.767,7.261,34.67,12.2,70.568,18.514,104.941C166.209,574.644,167.275,619.623,167.158,662.521Z" fill="#262626"></path>
      <path d="M138.258,679.785a4.108,4.108,0,0,0,4.076-4.427h0a4.106,4.106,0,0,0-2.659-3.529l-24.442-8.187a3.467,3.467,0,0,0-2.873.319,19.1,19.1,0,0,1-11.467,3.4,17.026,17.026,0,0,1-8.821-3.222,1.547,1.547,0,0,0-2.527,1.2v11.952a2.678,2.678,0,0,0,2.689,2.678Z" fill="#c1d8ed"></path>
      <path d="M221.991,679.785a4.107,4.107,0,0,0,4.076-4.427h0a4.106,4.106,0,0,0-2.658-3.529l-24.443-8.187a3.465,3.465,0,0,0-2.872.319,19.1,19.1,0,0,1-11.468,3.4,17.023,17.023,0,0,1-8.82-3.222,1.547,1.547,0,0,0-2.528,1.2v11.952a2.678,2.678,0,0,0,2.689,2.678Z" fill="#c1d8ed"></path>
    </g>
    <path d="M204.633,294.645s10.444-9.4,11.026-12.588-7.534-8.866-7.534-8.866,2.079-2.373,4.091-5.052c2.323-3.092,4.557-6.593,3.409-7.33-1.108-.711-3.838,1.92-6.559,5.1-3.5,4.09-6.974,9.093-6.974,9.093s1.351-5.531-.772-5.756c-.873-.092-1.5.8-2.618,4.721-1.269,4.47-3.939,11.245-3.939,11.245Z" fill="#E98862"></path>
    <path d="M183.731,346.787a10.9,10.9,0,0,0,10.1-6.8l19.6-48.266-20.2-8.2L187.29,298.13l-4.658-23.279-21.381,4.278,11.785,58.894a10.9,10.9,0,0,0,9.666,8.715C183.046,346.771,183.39,346.787,183.731,346.787Z" fill="#6C63FF"></path>
    <path d="M219.113,307.656l-12.122-1.934a3.427,3.427,0,0,1-2.761-4.305l7.626-27.372a3.427,3.427,0,0,1,3.842-2.465l12.122,1.934a3.428,3.428,0,0,1,2.761,4.305l-7.627,27.372A3.427,3.427,0,0,1,219.113,307.656Z" fill="#c1d8ed"></path>
    <path d="M199.592,300.482l7.149,9.7s19.215-3.852,21.018-18.655c.208-1.7.028-6.421-2.083-5.788-5.5,1.648-12.345,10.088-17.144,11.21,1.095-1.961,2.431-4.73,1.569-5.237C207.835,290.381,201.741,298.417,199.592,300.482Z" fill="#E98862"></path>
    <path d="M102.948,270.017c4.571-4.57,12.461-7.52,22.08-7.53.721,5.61,34.781,5.63,35.04.13,1.3.02,2.31.04,2.94.07,23.118,1,23.05,19.629,20.776,40.221l19.021-8.39,8.8,19.95-30.273,13.351c-.02.6-.036,1.2-.042,1.8-.391,32.46,8.379,38.58,4.059,48.5-4.189,9.63-86.519,13.63-87.619-3.31-.7-10.78,8.8-20.19,8.8-41.2S87.2,285.767,102.948,270.017Z" fill="#6C63FF"></path>
    <path d="M160.068,262.617c-.259,5.5-3.25,13.59-12.48,14.2-12.3.81-21.839-8.72-22.56-14.33h.031C137.169,262.487,153.008,262.507,160.068,262.617Z" fill="#E98862"></path>
    <g>
      <path d="M128.788,268.6s7.733-4.1,6.006-25.157l15.976-2.962s-1.8,18.878,6.288,24.872Z" fill="#E98862"></path>
      <g opacity="0.15">
        <path d="M153.784,261.406l-13.272-10.153,10.424-.108A28.736,28.736,0,0,0,153.784,261.406Z"></path>
      </g>
      <path d="M125.729,235.278c1.106,6.389,4.592,12.438,10.228,14.5,6.689,2.449,11.644,2.615,19.357,2.615,10.525,0,10.177-10.976,10.473-22.038.3-11.106-.586-23.018-4.746-26.888-8.3-7.725-32.673-2.833-35.638,10.087C123.87,220.238,124.676,229.2,125.729,235.278Z" fill="#E98862"></path>
      <g>
        <g>
          <circle cx="150.429" cy="228.908" r="1.449" fill="#0f1011"></circle>
          <circle cx="161.86" cy="227.971" r="1.449" fill="#0f1011"></circle>
          <path d="M164.371,224.883h-.009l-3.838-.048a.68.68,0,0,1-.672-.689.671.671,0,0,1,.689-.672l3.838.048a.681.681,0,0,1-.008,1.361Z" fill="#0f1011"></path>
          <path d="M147.3,226.283a.681.681,0,0,1-.158-1.343l3.784-.911a.681.681,0,1,1,.319,1.324l-3.785.911A.728.728,0,0,1,147.3,226.283Z" fill="#0f1011"></path>
        </g>
        <path d="M137.568,213.667c1.128,21.568-.982,31.594-2.156,35.35a1.713,1.713,0,0,1-2.518.957c-3.756-2.232-12.294-9.191-15.174-27.385-2.58-16.3,9.558-23.494,17.578-25.893,6.913-2.068,16.282-1.668,23.739,3.082,9.391,5.982,8,18.292,8,18.292-11.394.525-35.739,1.536-35.739,1.536" fill="#0f1011"></path>
        <path d="M142.891,232.454a6.143,6.143,0,1,1-12.244,1,6.04,6.04,0,0,1,5.62-6.624C140.645,226.691,142.614,229.073,142.891,232.454Z" fill="#E98862"></path>
        <g opacity="0.15">
          <path d="M156.861,236.945a.5.5,0,0,1-.147-.978l2.947-.905-2.061-4.59a.5.5,0,0,1,.912-.41l2.293,5.107a.5.5,0,0,1-.309.683l-3.488,1.071A.5.5,0,0,1,156.861,236.945Z"></path>
        </g>
        <path d="M151.1,240.32s5.349.564,9.1-.746c0,0-.03,3.523-4.262,3.87S151.1,240.32,151.1,240.32Z" fill="#fff"></path>
      </g>
    </g>
  </g>
</svg>