<svg id="Layer_1" data-name="Layer 1" xmlns="http://www.w3.org/2000/svg" viewBox="0 0 629.75 761.101">
  <g>
    <g>
      <g>
        <path d="M251.269,696.882s-13.232,19.558,1.2,35.822-1.121,25.165-1.121,25.165l-58.662-58.662L222,669.9Z" fill="#6C63FF"></path>
        <path d="M254.388,294.587s.26-6.97.2,8.841c-.091,26.256,2.407,95.639.652,185.064-1.4,71.483-51.164,194.148-51.164,194.148l44.88,32.213s67.511-109.5,78.225-217.9c5.484-55.488,16.7-204.764,16.7-204.764Z" fill="#262626"></path>
        <path d="M392.877,717.545s4.473,23.186,26.182,24.478,17,18.587,17,18.587H353.1V719.162Z" fill="#6C63FF"></path>
        <path d="M403.421,299.167s6.81,201.562,6.1,211.414l-6.4,220.234-53.613.991-8.645-229.191S335.2,439.394,319.92,380.687a455,455,0,0,1-14.036-92.072h0Z" fill="#262626"></path>
        <path d="M332.694,442.074l4.47-68.366s4.592,28.422,4.592,52.92c0,11.974-2.466,59.384-2.466,59.384Z" fill="#0a0a0a"></path>
        <path d="M253.8,294.581l-.179.01S253.746,291.153,253.8,294.581Z" fill="#333"></path>
      </g>
      <path d="M254.02,294.581l-.178.01S253.97,291.153,254.02,294.581Z" fill="#333"></path>
      <g>
        <path d="M289.125,39.954s-4.319,23.016-10.545,30.81c-17.925,22.436-25.538,49.177-12.192,65.219s109.306,27.714,120.494-4.175c9.418-26.848-3.364-31.384-3.841-54.518-.215-10.467-1.614-32.529-1.614-32.529" fill="#0a0a0a"></path>
        <path id="sk" d="M366.973,119.644c-.167-.021-2.019,30.7-37.712,28.025-24.71-1.851-33.52-28.068-34.087-28.068,2.664-.566,7.151-1.39,8.334-2.021,3.891-2.091,8.705-4.266,9.959-11.823.723-4.355-.5-26.635-.126-31.041l37.93,8.466c-.529,9.306-4.239,30.88,8.762,34.7C362.2,118.512,364.527,119.093,366.973,119.644Z" fill="#E98862"></path>
        <path id="sh" d="M351.8,109.063a27.455,27.455,0,0,1-1.141-5.886,62.8,62.8,0,0,1,.248-13.693A41.588,41.588,0,0,1,329.947,80.3c-.7,2.6-4.578,13.967-3.5,16.439C328.469,101.412,338,109.063,351.8,109.063Z" fill="#0c0c0c" opacity="1"></path>
        <path d="M345.071,101.64c-15.02-.338-33.522-8.574-35.138-28.824l-1.458-18.271c-1.616-20.25,7.71-37.514,26.776-39.036h0c19.066-1.521,34.627,13.757,36.243,34.007l.645,8.089C372.759,65.375,371.87,102.244,345.071,101.64Z" fill="#E98862"></path>
        <circle cx="361.205" cy="56.597" r="2.356" fill="#0c0c0c"></circle>
        <circle cx="339.754" cy="56.597" r="2.356" fill="#0c0c0c"></circle>
        <path d="M353.948,74.762h.038a21.257,21.257,0,0,0,2.3-.329c1.137-.235,2.639-.665,2.558-1.677-.091-1.154-4.245-13.351-4.719-14.738a.483.483,0,0,0-.914.312c1.773,5.194,4.609,13.726,4.671,14.5-.162.34-2.058.814-3.975.967a.483.483,0,0,0,.039.964Z" fill="#0c0c0c" opacity="1"></path>
        <path d="M350.832,79.583a19.732,19.732,0,0,0-8.857,2.285.483.483,0,1,0,.434.862c5.9-2.972,11.424-2.945,15.986.077a3.079,3.079,0,0,0,.286.177.483.483,0,0,0,.426-.866c-.037-.02-.1-.061-.178-.116A14.469,14.469,0,0,0,350.832,79.583Z" fill="#0c0c0c" opacity="1"></path>
        <path d="M292.854,59.173l17.081-1.265C323.174,54.143,329.378,32.6,329.378,32.6s13.789,16.679,52.049,12.164c0,0-1.871-52.881-58.668-43.688-18.314,2.965-33.013,19.513-34.006,43.641C288.057,61.622,292.854,59.173,292.854,59.173Z" fill="#0a0a0a"></path>
        <path d="M311.609,78.891c-5.794.462-10.985-5.362-11.448-11.156s3.98-9.364,9.774-9.827l3.3,3.645,3.36,16.94Z" fill="#E98862"></path>
        <path d="M358.572,48.9a11.044,11.044,0,0,1,5.729-1.152,9.755,9.755,0,0,1,2.847.615A11.491,11.491,0,0,1,369.7,49.7a.5.5,0,0,1-.533.856l-.034-.02a10.362,10.362,0,0,0-2.358-1.107A8.577,8.577,0,0,0,364.24,49a9.7,9.7,0,0,0-4.9,1.2l-.049.028a.757.757,0,0,1-.752-1.315Z" fill="#0c0c0c"></path>
        <path d="M343.255,50.8a9.7,9.7,0,0,0-5.024-.426,8.593,8.593,0,0,0-2.441.815,10.431,10.431,0,0,0-2.159,1.457l-.029.025a.5.5,0,0,1-.66-.763,11.55,11.55,0,0,1,2.317-1.723,9.754,9.754,0,0,1,2.718-1.046,11.051,11.051,0,0,1,5.838.254.758.758,0,0,1-.475,1.439l-.03-.011Z" fill="#0c0c0c"></path>
        <path d="M309.994,57.7l-.116-.482c22.043-5.329,19.1-26.714,19.067-26.93l.49-.074C329.468,30.434,332.484,52.262,309.994,57.7Z" fill="#0c0c0c"></path>
        <ellipse cx="338.732" cy="71.308" rx="4.488" ry="3.292" fill="#0c0c0c" opacity="0.1"></ellipse>
        <path d="M365.407,70.521c0,1.816,2.014,3.289,4.492,3.293a6.238,6.238,0,0,0,1.275-.133c.368-2.121.621-4.173.785-6.081a5.636,5.636,0,0,0-2.062-.37C367.419,67.226,365.41,68.7,365.407,70.521Z" fill="#0c0c0c" opacity="0.1"></path>
      </g>
      <g>
        <path d="M411.32,187.286c-1.125,13.208-6.594,95.612-7.674,111.881H254.673c-.842-14.674-4.621-78.835-7.812-107.529-3.046-27.381-9.023-41.089-4.642-49.184,7.159-13.23,26.721-20.874,40.059-22.68,8.146-1.1,20.4-1.894,20.4-1.894s1.037,20.984,25.771,22.152c33.669,1.588,31.421-22.152,31.587-22.152,5.455,0,36.614,3.453,44.238,7.972C425.043,138.153,413.706,159.3,411.32,187.286Z" fill="#6C63FF"></path>
        <g>
          <path d="M524.551,211.435a3.7,3.7,0,0,1,4.928-2.144,3.842,3.842,0,0,1,1.96,4.866l-1.7,4.7,10.71-10.921c1.331-1.4,3.859-2.261,5.328-.665,1.273,1.212,4.215,1.586,4.693,3.857.016.012-.014,20.8-1.248,22.1h0c-5.239,5.5-17.9,6.565-24.965,3.772l-11.119-4.4Z" fill="#E98862"></path>
          <g opacity="0.1">
            <path d="M524.551,211.435a3.7,3.7,0,0,1,4.928-2.144,3.842,3.842,0,0,1,1.96,4.866l-1.7,4.7,10.71-10.921c1.331-1.4,3.859-2.261,5.328-.665,1.273,1.212,4.215,1.586,4.693,3.857.016.012-.014,20.8-1.248,22.1h0c-5.239,5.5-17.9,6.565-24.965,3.772l-11.119-4.4Z" fill="#0c0c0c"></path>
          </g>
        </g>
        <g>
          <path d="M570.693,296.16,379.619,324.719a20.531,20.531,0,0,1-21.811-28.611l73.005-165.032a20.531,20.531,0,0,1,34.3-5.127L583.184,262.422A20.531,20.531,0,0,1,570.693,296.16Z" fill="#6C63FF"></path>
          <path d="M570.693,296.16,379.619,324.719a20.531,20.531,0,0,1-21.811-28.611l73.005-165.032a20.531,20.531,0,0,1,34.3-5.127L583.184,262.422A20.531,20.531,0,0,1,570.693,296.16Z" fill="#fff" opacity="0.48"></path>
          <path d="M376.469,325.455a21.044,21.044,0,0,1-19.118-29.549l73.005-165.031a21.03,21.03,0,0,1,35.137-5.253l118.07,136.472a21.031,21.031,0,0,1-12.8,34.56l-191.074,28.56A21.786,21.786,0,0,1,376.469,325.455ZM449.63,119.347a20.322,20.322,0,0,0-3,.224,19.936,19.936,0,0,0-15.358,11.708l-73,165.031a20.032,20.032,0,0,0,21.28,27.915l191.073-28.559a20.032,20.032,0,0,0,12.189-32.917L464.737,126.276A19.918,19.918,0,0,0,449.63,119.347Z" fill="#0c0c0c"></path>
          <path d="M446.373,196.462l-4.155-22.135,24.686-3.69,2.5,22.382,4.227,51.745-16.167,2.416Zm8.087,77.02C453.149,264.71,458.466,257,467,255.724s15.877,4.542,17.188,13.315c1.3,8.714-4.015,16.422-12.552,17.7S455.763,282.2,454.46,273.482Z" fill="#fff"></path>
        </g>
        <path d="M538.175,227.756a3.033,3.033,0,0,1,1.541-3.321c-.032-.042-.14-.123-.064-.175l-2.527.094a3.087,3.087,0,0,1-3.208-2.48,2.972,2.972,0,0,1,2.157-3.351c-.022-.02-.023-.054-.038-.08l-1.039.038a3.046,3.046,0,0,1-3.113-2.272,2.976,2.976,0,0,1,2.783-3.667l2.4-.089c0-.013-.015-.02-.016-.033s.014-.029.016-.045a2.972,2.972,0,0,1-2.422-2.808c-.179-1.734,1.686-2.8,3.236-2.853l4.9.2a4.591,4.591,0,0,1,3.733,2.2c3.4,5.59,11.937,20.4,6.99,20.585l-12.176.45A3.222,3.222,0,0,1,538.175,227.756Z" fill="#E98862"></path>
        <g>
          <path d="M412.51,252.132a3.517,3.517,0,0,0-2.559-3.161.308.308,0,0,0,.036-.186.313.313,0,0,0-.219-.222l2.928-.649a3.659,3.659,0,0,0,2.937-3.807,3.523,3.523,0,0,0-3.478-3.2c.019-.03.01-.069.02-.1l1.2-.267A3.611,3.611,0,0,0,416.269,237a3.53,3.53,0,0,0-4.292-3.375l-2.776.617c0-.016.011-.028.008-.043s-.025-.029-.031-.048a3.522,3.522,0,0,0,1.937-3.946c-.314-2.043-2.771-2.7-4.567-2.3l-16.2,3.3,3.844-2.81a3.66,3.66,0,0,0,1.034-4.889,3.526,3.526,0,0,0-5.035-.922L369.2,237.926a11.718,11.718,0,0,0-2.737,16.1h0a17.758,17.758,0,0,0,18.476,7.268l24.677-5.477A3.776,3.776,0,0,0,412.51,252.132Z" fill="#E98862"></path>
          <g opacity="0.25">
            <path d="M393.169,237.5a.326.326,0,0,0,.383.246l15.4-3.159a.325.325,0,1,0-.131-.637l-15.4,3.158a.326.326,0,0,0-.253.385Z" fill="#0c0c0c"></path>
          </g>
          <g opacity="0.25">
            <path d="M394.375,244.328a.326.326,0,0,0,.383.246l17.19-3.525a.327.327,0,0,0,.254-.385.338.338,0,0,0-.385-.253l-17.19,3.525a.326.326,0,0,0-.253.385Z" fill="#0c0c0c"></path>
          </g>
          <g opacity="0.25">
            <path d="M395.639,251.735a.325.325,0,0,0,.382.246l13.713-2.812a.325.325,0,0,0-.131-.637l-13.713,2.812a.325.325,0,0,0-.253.384Z" fill="#0c0c0c"></path>
          </g>
        </g>
        <path id="b_4_b" d="M383.415,271.064l-133.887,24.2a27.2,27.2,0,0,1-29.766-31.553L238.506,152.3a27.2,27.2,0,1,1,53.645,9.026L279.37,238.016l98.159-12.327Z" fill="#6C63FF"></path>
        <g id="b_4_b-2" data-name="b_4_b">
          <path d="M249.527,295.755a.5.5,0,0,1-.087-.983l133.424-24.111L377.1,226.242l-97.669,12.266a.489.489,0,0,1-.419-.148.5.5,0,0,1-.132-.425l8.125-49.017a.5.5,0,0,1,.977.162l-8.016,48.362,97.5-12.245a.5.5,0,0,1,.554.428L383.907,271a.5.5,0,0,1-.4.552l-133.887,24.2A.667.667,0,0,1,249.527,295.755Z" fill="#0c0c0c"></path>
        </g>
        <rect x="270.703" y="238.212" width="8.722" height="0.992" transform="translate(-34.274 46.479) rotate(-9.095)" fill="#0c0c0c"></rect>
      </g>
    </g>
    <path d="M555.467,761.1H114a.773.773,0,1,1,0-1.546H555.467a.773.773,0,0,1,0,1.546Z" fill="#3f3f3f"></path>
    <g>
      <path d="M143.273,517.033l-129.5-.087A13.762,13.762,0,0,1,2.165,495.81L66.983,393.682a13.762,13.762,0,0,1,23.248.016l64.681,102.215A13.762,13.762,0,0,1,143.273,517.033Z" fill="#f4f4f4"></path>
      <path d="M68.488,490.436c0-5.946,4.3-10.526,10.082-10.522s10.072,4.59,10.068,10.536c0,5.905-4.3,10.485-10.081,10.481S68.484,496.342,68.488,490.436Zm2.306-51.86-.551-15.085,16.731.012L86.4,438.587l-2.348,34.721L73.1,473.3Z" fill="#fff"></path>
    </g>
    <g>
      <path d="M193.843,181.814l-104.223-.07a11.076,11.076,0,0,1-9.344-17.011l52.167-82.194a11.075,11.075,0,0,1,18.71.012l52.056,82.265A11.075,11.075,0,0,1,193.843,181.814Z" fill="#f4f4f4"></path>
      <path d="M133.657,160.411a8.114,8.114,0,1,1,8.1,8.447A8.121,8.121,0,0,1,133.657,160.411Zm1.856-41.732-.445-12.14,13.464.01-.459,12.138-1.889,27.942-8.819-.006Z" fill="#fff"></path>
    </g>
    <g>
      <path d="M617.636,613.506,503.9,613.429a12.087,12.087,0,0,1-10.2-18.564l56.93-89.7a12.088,12.088,0,0,1,20.42.014l56.809,89.775A12.088,12.088,0,0,1,617.636,613.506Z" fill="#f4f4f4"></path>
      <path d="M551.958,590.15c0-5.222,3.773-9.244,8.854-9.24s8.844,4.03,8.841,9.252a8.855,8.855,0,1,1-17.7-.012Zm2.025-45.545-.485-13.248,14.694.01-.5,13.247-2.063,30.494L556,575.1Z" fill="#fff"></path>
    </g>
  </g>
</svg>